<?xml version="1.0" encoding="utf-8"?>

<!DOCTYPE svg PUBLIC "-//W3C//DTD SVG 1.1//EN" "http://www.w3.org/Graphics/SVG/1.1/DTD/svg11.dtd">
<!-- Uploaded to: SVG Repo, www.svgrepo.com, Generator: SVG Repo Mixer Tools -->
<svg version="1.1" id="_x32_" xmlns="http://www.w3.org/2000/svg" xmlns:xlink="http://www.w3.org/1999/xlink" 
	 width="800px" height="800px" viewBox="0 0 512 512"  xml:space="preserve">
<style type="text/css">
<![CDATA[
	.st0{fill:#000000;}
]]>
</style>
<g>
	<path class="st0" d="M488.938,469.028c-19.406-76.531-112-102.047-112-102.047s13.438-16.125,44.797-34.906
		c-14.766-25.453-41.656-41.766-50.688-46.734c12.453-7.078,21.141-35.203,28.469-48.641c8.047-14.719-6.438-22.094-14.469-20.609
		c0,0-0.016-0.797-0.016-2.219c59.75-16.563,97.891-38.969,95.531-60.172c-2.438-21.688-46.703-36.766-111.313-41.578
		c-1.094-1.641-2.219-3.281-3.438-4.906c-6.094-32.703-12.844-68.734-14.875-78.875C346.063,4.012,311.063-9.597,285.047,7.95
		c-13.641,9.203-25.828,9.859-32.297,9.859s-13.625,1.313-32.297-9.859c-27.031-16.188-61.016-3.938-65.891,20.391
		c-2.406,11.953-11.328,59.844-18.031,95.875c-1.625,3.359-2.984,6.594-4.094,9.656c-63.563,16.734-104.656,40.016-102.219,61.984
		c2.031,18.219,33.578,31.766,81.875,38.5c0.313,0.766,0.672,1.531,1.109,2.344c7.266,13.313,15.844,41.047,28.109,48.438
		c-8.625,4.719-36.094,21.125-51.047,46.938c31.359,18.781,44.797,34.906,44.797,34.906s-92.578,25.516-112,102.047
		C17.094,501.263,182.844,511.997,256,511.997S494.906,501.263,488.938,469.028z M312.938,267.043
		C270.75,274.2,272,243.09,256.375,244.7c-15.641-1.609-14.406,29.5-56.594,22.344c-20.25-3.422-33.719-16.234-42.281-28.641
		c31.563,1.453,67.188,0.625,104.672-2.875c37.609-3.531,72.766-9.328,103.438-16.641
		C360.25,232.403,345.125,261.59,312.938,267.043z"/>
</g>
</svg>